<svg width="17" height="16" viewBox="0 0 17 16" fill="none" xmlns="http://www.w3.org/2000/svg">
<g clip-path="url(#clip0_1313_3793)">
<path d="M15.7079 6.09859L15.9271 3.99927L13.9983 3.14103C13.9353 3.11305 13.8849 3.06267 13.857 2.99979L12.999 1.07104L10.8993 1.2905C10.8311 1.29729 10.7628 1.27882 10.7074 1.23876L8.99809 0L7.28879 1.23876C7.23325 1.27882 7.16494 1.29729 7.0969 1.2905L4.99705 1.07104L4.13907 2.99979C4.11123 3.06267 4.06085 3.11305 3.99784 3.14075L2.06909 3.99927L2.28827 6.09859C2.29533 6.16676 2.277 6.2352 2.2368 6.29074L0.998047 8.00004L2.2368 9.70934C2.277 9.76488 2.29533 9.83332 2.28827 9.90149L2.06909 12.0007L3.99784 12.8589C4.06072 12.8869 4.1111 12.9373 4.13907 13.0003L4.99705 14.929L7.0969 14.7096C7.10627 14.7096 7.11605 14.7081 7.12461 14.7081C7.18327 14.7081 7.24031 14.7267 7.2877 14.7613L8.99809 15.9999L10.7074 14.7613C10.7628 14.721 10.8311 14.7025 10.8993 14.7096L12.999 14.929L13.857 13.0003C13.8849 12.9373 13.9353 12.887 13.9983 12.8592L15.9271 12.0007L15.7079 9.90149C15.7007 9.83332 15.719 9.76488 15.7594 9.70934L16.998 8.00004L15.7594 6.29074C15.719 6.2352 15.7007 6.16676 15.7079 6.09859Z" fill="#D4F850"/>
<path fill-rule="evenodd" clip-rule="evenodd" d="M7.72433 9.94049L12.887 4.77777L13.6727 5.56344L7.72433 11.5118L4.55371 8.34122L5.33939 7.55555L7.72433 9.94049Z" fill="#0E1318"/>
</g>
<defs>
<clipPath id="clip0_1313_3793">
<rect width="16" height="16" fill="white" transform="translate(0.998047)"/>
</clipPath>
</defs>
</svg>
