<svg width="21" height="23" viewBox="0 0 21 23" fill="none" xmlns="http://www.w3.org/2000/svg">
<path fill-rule="evenodd" clip-rule="evenodd" d="M17.5 9C17.5 4.94082 15.2616 2.1235 12.3654 1.27771C12.2605 1.00636 12.0948 0.7541 11.8695 0.54243C11.0997 -0.18081 9.90027 -0.18081 9.13051 0.54243C8.90572 0.753635 8.74021 1.00525 8.63531 1.27592C5.73535 2.11803 3.5 4.92919 3.5 9C3.5 11.6339 2.96898 13.1098 1.98596 14.1793C1.82161 14.3582 1.37632 14.7678 1.07468 15.0453L1.07465 15.0453L1.07465 15.0453L1.0745 15.0454C0.931865 15.1766 0.821381 15.2783 0.787965 15.3119L0.5 15.604V19.0141H6.58798C6.79384 20.0761 7.37009 20.7867 8.4122 21.4226C9.69414 22.2049 11.3059 22.2049 12.5878 21.4226C13.5075 20.8614 14.1241 19.9989 14.3743 19.0141H20.5V15.604L20.212 15.3119C20.1817 15.2812 20.0757 15.1834 19.937 15.0555C19.6363 14.7781 19.1823 14.3592 19.0154 14.1769C18.0317 13.1024 17.5 11.6246 17.5 9ZM12.2367 19.0141H8.67862C8.8199 19.2769 9.06071 19.4754 9.45402 19.7154C10.0963 20.1073 10.9037 20.1073 11.546 19.7154C11.8434 19.5339 12.0758 19.2937 12.2367 19.0141ZM17.5402 15.5274C17.7506 15.7573 18.2016 16.1774 18.5 16.4519V17.0141H2.5V16.4524C2.79607 16.1811 3.24843 15.7613 3.45849 15.5327C4.79422 14.0794 5.5 12.1178 5.5 9C5.5 5.21989 7.83277 3.01238 10.5 3.01238C13.1597 3.01238 15.5 5.23129 15.5 9C15.5 12.1078 16.206 14.07 17.5402 15.5274Z" fill="#73747B"/>
</svg>
