<svg width="16" height="4" viewBox="0 0 16 4" fill="none" xmlns="http://www.w3.org/2000/svg">
<path fill-rule="evenodd" clip-rule="evenodd" d="M2.16667 3.66665C1.24619 3.66665 0.5 2.92045 0.5 1.99998C0.5 1.0795 1.24619 0.333313 2.16667 0.333313C3.08714 0.333313 3.83333 1.0795 3.83333 1.99998C3.83333 2.92045 3.08714 3.66665 2.16667 3.66665ZM8 3.66665C7.07952 3.66665 6.33333 2.92045 6.33333 1.99998C6.33333 1.0795 7.07952 0.333313 8 0.333313C8.92047 0.333313 9.66667 1.0795 9.66667 1.99998C9.66667 2.92045 8.92047 3.66665 8 3.66665ZM12.1667 1.99998C12.1667 2.92045 12.9129 3.66665 13.8333 3.66665C14.7538 3.66665 15.5 2.92045 15.5 1.99998C15.5 1.0795 14.7538 0.333313 13.8333 0.333313C12.9129 0.333313 12.1667 1.0795 12.1667 1.99998Z" fill="#73747B"/>
</svg>
