<svg width="16" height="14" viewBox="0 0 16 14" fill="none" xmlns="http://www.w3.org/2000/svg">
<path fill-rule="evenodd" clip-rule="evenodd" d="M8.73543 0.797392C9.44859 0.448319 10.0707 0.333342 11.0358 0.333354C13.5056 0.343582 15.3337 2.42657 15.3337 5.07993C15.3337 7.10518 14.2044 9.06153 12.1011 10.9533C10.9971 11.9462 9.58744 12.9289 8.57792 13.4517L8.00033 13.7508L7.42273 13.4517C6.41321 12.9289 5.00359 11.9462 3.89955 10.9533C1.79621 9.06153 0.666992 7.10518 0.666992 5.07993C0.666992 2.39819 2.47795 0.333344 4.97002 0.333344C5.90051 0.333344 6.55454 0.459194 7.28153 0.818766C7.53464 0.943956 7.77245 1.09245 7.99364 1.26385C8.22369 1.08227 8.47139 0.92663 8.73543 0.797392Z" fill="#0E1318"/>
</svg>
