<svg width="24" height="24" viewBox="0 0 24 24" fill="none" xmlns="http://www.w3.org/2000/svg">
<path d="M12 22V2M12 22C9.20261 22 6.67349 20.8514 4.85857 19C3.76844 17.888 2.93597 16.5224 2.4578 15M12 22C14.7974 22 17.3265 20.8514 19.1414 19C20.2316 17.888 21.064 16.5224 21.5422 15M12 22C13.6667 21 17 17.6 17 12C17 8.66667 16 2 12 2M12 22C10.3333 21.1667 7 18 7 12C7 4.4 10.3333 2.16667 12 2M12 2C9.20261 2 6.67349 3.14864 4.85857 5C3.76844 6.11202 2.93597 7.47756 2.4578 9M12 2C14.7974 2 17.3265 3.14864 19.1414 5C20.2316 6.11202 21.064 7.47756 21.5422 9M2.4578 15C2.16035 14.053 2 13.0452 2 12C2 11.3151 2.06886 10.6462 2.20004 10C2.26903 9.66009 2.35527 9.32644 2.4578 9M2.4578 15H21.5422M21.5422 15C21.8396 14.053 22 13.0452 22 12C22 11.3151 21.9311 10.6462 21.8 10C21.731 9.66009 21.6447 9.32644 21.5422 9M2.4578 9H21.5422" stroke="#73747B" stroke-width="2"/>
</svg>
