<svg width="18" height="18" viewBox="0 0 18 18" fill="none" xmlns="http://www.w3.org/2000/svg">
<path fill-rule="evenodd" clip-rule="evenodd" d="M9.00033 17.3333C7.56319 17.3333 6.17781 16.9683 4.95076 16.2848L1.42142 16.5789L1.71553 13.0496C1.03201 11.8225 0.666992 10.4371 0.666992 8.99999C0.666992 4.39762 4.39795 0.666656 9.00033 0.666656C13.6027 0.666656 17.3337 4.39762 17.3337 8.99999C17.3337 13.6024 13.6027 17.3333 9.00033 17.3333ZM5.57117 14.7184L5.34066 14.5799L3.2459 14.7544L3.42046 12.6597L3.2819 12.4291C2.66447 11.402 2.33366 10.2263 2.33366 8.99999C2.33366 5.31809 5.31843 2.33332 9.00033 2.33332C12.6822 2.33332 15.667 5.31809 15.667 8.99999C15.667 12.6819 12.6822 15.6667 9.00033 15.6667C7.77405 15.6667 6.5983 15.3358 5.57117 14.7184Z" fill="#73747B"/>
</svg>
