<svg width="20" height="18" viewBox="0 0 20 18" fill="none" xmlns="http://www.w3.org/2000/svg">
<path fill-rule="evenodd" clip-rule="evenodd" d="M13.794 0.66667C12.5876 0.666656 11.81 0.810376 10.9186 1.24672C10.5885 1.40826 10.2789 1.60282 9.99132 1.82979C9.71483 1.61554 9.41757 1.42992 9.10118 1.27343C8.19244 0.823969 7.37491 0.666656 6.2118 0.666656C3.0967 0.666656 0.833008 3.24771 0.833008 6.59989C0.833008 9.13145 2.24453 11.5769 4.87371 13.9416C6.25375 15.1828 8.01578 16.4111 9.27768 17.0646L9.99967 17.4384L10.7217 17.0646C11.9836 16.4111 13.7456 15.1828 15.1256 13.9416C17.7548 11.5769 19.1663 9.13145 19.1663 6.59989C19.1663 3.28319 16.8813 0.679455 13.794 0.66667ZM17.4997 6.59989C17.4997 8.58324 16.3215 10.6244 14.0111 12.7024C12.7515 13.8353 11.1321 14.9674 9.99967 15.5614C8.86721 14.9674 7.24786 13.8353 5.98824 12.7024C3.67786 10.6244 2.49967 8.58324 2.49967 6.59989C2.49967 4.12309 4.06938 2.33332 6.2118 2.33332C7.13658 2.33332 7.70645 2.44298 8.36229 2.76736C8.74968 2.95896 9.09207 3.21197 9.38845 3.52813L10.0016 4.18224L10.6092 3.52295C10.9123 3.19412 11.2597 2.93535 11.6513 2.74368C12.2879 2.43207 12.8222 2.33332 13.7906 2.33333C15.9065 2.3421 17.4997 4.15746 17.4997 6.59989Z" fill="#73747B"/>
</svg>
