<svg width="16" height="16" viewBox="0 0 16 16" fill="none" xmlns="http://www.w3.org/2000/svg">
<path fill-rule="evenodd" clip-rule="evenodd" d="M7.99837 0.666687C12.0485 0.666687 15.3317 3.94993 15.3317 8.00002C15.3317 12.0501 12.0485 15.3334 7.99837 15.3334C3.94828 15.3334 0.665039 12.0501 0.665039 8.00002C0.665039 3.94993 3.94828 0.666687 7.99837 0.666687ZM2.04214 7.27162C2.2365 7.52038 2.77692 7.83867 3.60388 8.09836C3.92949 8.20061 4.2861 8.2905 4.66874 8.36683C4.66628 8.24527 4.66504 8.12298 4.66504 8.00002C4.66504 5.78159 5.06875 3.77822 5.76807 2.42822C3.77445 3.22697 2.30922 5.06468 2.04214 7.27162ZM4.75113 9.74057C3.68059 9.55449 2.76267 9.27287 2.06702 8.91054C2.39062 11.0361 3.82955 12.7952 5.76807 13.5718C5.25748 12.5862 4.90448 11.2522 4.75113 9.74057ZM6.11764 9.91824C6.71571 9.97212 7.34563 10 7.99837 10C8.64059 10 9.27334 9.96362 9.88189 9.89611C9.58118 12.2945 8.74971 14 7.99837 14C7.24935 14 6.42068 12.305 6.11764 9.91824ZM9.98923 8.53636C9.3562 8.61835 8.68374 8.66669 7.99837 8.66669C7.30222 8.66669 6.63398 8.63221 6.00858 8.56684C6.00185 8.38039 5.99837 8.19133 5.99837 8.00002C5.99837 4.65602 7.06077 2.00002 7.99837 2.00002C8.93597 2.00002 9.99837 4.65602 9.99837 8.00002C9.99837 8.18092 9.99526 8.3598 9.98923 8.53636ZM11.2512 9.68461C11.1009 11.2193 10.7456 12.574 10.2287 13.5718C12.2014 12.7814 13.6568 10.9737 13.9458 8.79764C13.239 9.16526 12.3082 9.47266 11.2512 9.68461ZM13.9507 7.24011C13.637 7.59223 12.6475 8.01051 11.3292 8.30277C11.3309 8.20233 11.3317 8.1014 11.3317 8.00002C11.3317 5.78159 10.928 3.77822 10.2287 2.42822C12.2128 3.22316 13.6736 5.0472 13.9507 7.24011Z" fill="#73747B"/>
</svg>
